<svg id="visual" viewBox="0 0 960 540" width="960" height="540" xmlns="http://www.w3.org/2000/svg" xmlns:xlink="http://www.w3.org/1999/xlink" version="1.1"><rect width="960" height="540" fill="#111111"></rect><g><g transform="translate(202 236)"><path d="M0 -87L75.3 -43.5L75.3 43.5L0 87L-75.3 43.5L-75.3 -43.5Z" fill="none" stroke="#ffffff" stroke-width="4"></path></g><g transform="translate(17 399)"><path d="M0 -83L71.9 -41.5L71.9 41.5L0 83L-71.9 41.5L-71.9 -41.5Z" stroke="#ffffff" fill="none" stroke-width="4"></path></g><g transform="translate(729 18)"><path d="M0 -65L56.3 -32.5L56.3 32.5L0 65L-56.3 32.5L-56.3 -32.5Z" stroke="#ffffff" fill="none" stroke-width="4"></path></g><g transform="translate(671 391)"><path d="M0 -82L71 -41L71 41L0 82L-71 41L-71 -41Z" stroke="#ffffff" fill="none" stroke-width="4"></path></g><g transform="translate(860 442)"><path d="M0 -76L65.8 -38L65.8 38L0 76L-65.8 38L-65.8 -38Z" stroke="#ffffff" fill="none" stroke-width="4"></path></g><g transform="translate(885 216)"><path d="M0 -44L38.1 -22L38.1 22L0 44L-38.1 22L-38.1 -22Z" stroke="#ffffff" fill="none" stroke-width="4"></path></g><g transform="translate(455 349)"><path d="M0 -25L21.7 -12.5L21.7 12.5L0 25L-21.7 12.5L-21.7 -12.5Z" stroke="#ffffff" fill="none" stroke-width="4"></path></g><g transform="translate(24 12)"><path d="M0 -82L71 -41L71 41L0 82L-71 41L-71 -41Z" stroke="#ffffff" fill="none" stroke-width="4"></path></g><g transform="translate(228 52)"><path d="M0 -69L59.8 -34.5L59.8 34.5L0 69L-59.8 34.5L-59.8 -34.5Z" stroke="#ffffff" fill="none" stroke-width="4"></path></g><g transform="translate(28 186)"><path d="M0 -59L51.1 -29.5L51.1 29.5L0 59L-51.1 29.5L-51.1 -29.5Z" stroke="#ffffff" fill="none" stroke-width="4"></path></g><g transform="translate(532 108)"><path d="M0 -66L57.2 -33L57.2 33L0 66L-57.2 33L-57.2 -33Z" stroke="#ffffff" fill="none" stroke-width="4"></path></g><g transform="translate(952 38)"><path d="M0 -46L39.8 -23L39.8 23L0 46L-39.8 23L-39.8 -23Z" stroke="#ffffff" fill="none" stroke-width="4"></path></g><g transform="translate(243 422)"><path d="M0 -34L29.4 -17L29.4 17L0 34L-29.4 17L-29.4 -17Z" stroke="#ffffff" fill="none" stroke-width="4"></path></g><g transform="translate(518 521)"><path d="M0 -39L33.8 -19.5L33.8 19.5L0 39L-33.8 19.5L-33.8 -19.5Z" stroke="#ffffff" fill="none" stroke-width="4"></path></g><g transform="translate(709 217)"><path d="M0 -67L58 -33.5L58 33.5L0 67L-58 33.5L-58 -33.5Z" stroke="#ffffff" fill="none" stroke-width="4"></path></g></g></svg>